<mxfile host="app.diagrams.net" modified="2023-02-07T10:27:04.730Z" agent="5.0 (Windows NT 10.0; Win64; x64) AppleWebKit/537.36 (KHTML, like Gecko) Chrome/109.0.0.0 Safari/537.36" etag="3ItRCainEjfjGjVfj30Z" version="20.8.15" type="github">
  <diagram name="Page-1" id="nuZNlfcVQg6bN6G8HQqh">
    <mxGraphModel dx="1434" dy="764" grid="1" gridSize="10" guides="1" tooltips="1" connect="1" arrows="1" fold="1" page="1" pageScale="1" pageWidth="827" pageHeight="1169" math="0" shadow="0">
      <root>
        <mxCell id="0" />
        <mxCell id="1" parent="0" />
        <mxCell id="tJJZwCBkmVZ7Ym8GBaK3-1" value="算法研究" style="rounded=0;whiteSpace=wrap;html=1;" vertex="1" parent="1">
          <mxGeometry x="360" y="200" width="120" height="60" as="geometry" />
        </mxCell>
        <mxCell id="tJJZwCBkmVZ7Ym8GBaK3-2" value="方案制订" style="rounded=0;whiteSpace=wrap;html=1;" vertex="1" parent="1">
          <mxGeometry x="360" y="350" width="120" height="60" as="geometry" />
        </mxCell>
        <mxCell id="tJJZwCBkmVZ7Ym8GBaK3-3" value="需求评审&lt;br&gt;（1.场景业务目标清晰2.是否可实现）" style="rounded=0;whiteSpace=wrap;html=1;" vertex="1" parent="1">
          <mxGeometry x="360" y="110" width="120" height="60" as="geometry" />
        </mxCell>
        <mxCell id="tJJZwCBkmVZ7Ym8GBaK3-4" value="复盘" style="rounded=0;whiteSpace=wrap;html=1;" vertex="1" parent="1">
          <mxGeometry x="560" y="350" width="120" height="60" as="geometry" />
        </mxCell>
        <mxCell id="tJJZwCBkmVZ7Ym8GBaK3-5" value="资源池" style="rounded=0;whiteSpace=wrap;html=1;" vertex="1" parent="1">
          <mxGeometry x="140" y="300" width="120" height="60" as="geometry" />
        </mxCell>
        <mxCell id="tJJZwCBkmVZ7Ym8GBaK3-6" value="标准模型库" style="rounded=0;whiteSpace=wrap;html=1;" vertex="1" parent="1">
          <mxGeometry x="140" y="420" width="120" height="60" as="geometry" />
        </mxCell>
        <mxCell id="tJJZwCBkmVZ7Ym8GBaK3-7" value="模型算法需求" style="rounded=0;whiteSpace=wrap;html=1;" vertex="1" parent="1">
          <mxGeometry x="360" y="20" width="120" height="60" as="geometry" />
        </mxCell>
        <mxCell id="tJJZwCBkmVZ7Ym8GBaK3-8" value="研究成果评审&lt;br&gt;（研究结论）" style="rounded=0;whiteSpace=wrap;html=1;" vertex="1" parent="1">
          <mxGeometry x="360" y="270" width="120" height="60" as="geometry" />
        </mxCell>
        <mxCell id="tJJZwCBkmVZ7Ym8GBaK3-9" value="方案评审&lt;br&gt;（可行性、落地性、复杂性、稳定性、先进性）" style="rounded=0;whiteSpace=wrap;html=1;" vertex="1" parent="1">
          <mxGeometry x="360" y="430" width="120" height="60" as="geometry" />
        </mxCell>
        <mxCell id="tJJZwCBkmVZ7Ym8GBaK3-10" value="开发模型" style="rounded=0;whiteSpace=wrap;html=1;" vertex="1" parent="1">
          <mxGeometry x="360" y="510" width="120" height="60" as="geometry" />
        </mxCell>
        <mxCell id="tJJZwCBkmVZ7Ym8GBaK3-11" value="代码评审&lt;br&gt;（code review）" style="rounded=0;whiteSpace=wrap;html=1;" vertex="1" parent="1">
          <mxGeometry x="360" y="600" width="120" height="60" as="geometry" />
        </mxCell>
        <mxCell id="tJJZwCBkmVZ7Ym8GBaK3-13" value="模型评估&lt;br&gt;(模型效果结论)" style="rounded=0;whiteSpace=wrap;html=1;" vertex="1" parent="1">
          <mxGeometry x="360" y="690" width="120" height="60" as="geometry" />
        </mxCell>
      </root>
    </mxGraphModel>
  </diagram>
</mxfile>
